<svg id="Layer_1" data-name="Layer 1" xmlns="http://www.w3.org/2000/svg" xmlns:xlink="http://www.w3.org/1999/xlink" viewBox="0 0 332.02 327.31"><defs><style>.cls-1{fill:url(#radial-gradient);}.cls-2{fill:#00001d;}</style><radialGradient id="radial-gradient" cx="529.49" cy="413.93" r="153.4" gradientUnits="userSpaceOnUse"><stop offset="0" stop-color="#007eff"/><stop offset="1" stop-color="#00002f"/></radialGradient></defs><path class="cls-1" d="M364.05,487.56c18.18,10.39,37,7.15,45.89-.89,35.68-32.46,57.09-78.91,94.55-109.3,38.1-30.91,65.63-36.25,108.12-77.41-10.69,58.79-94.07,60.4-139.73,155.73C566.21,340.26,623.39,353.79,685.7,273.6c4.95,35.51-4.62,69.93-30.81,94.41s-57.39,48.66-102.42,72.62c36.95-13.86,59.78-26.13,79.38-40.13,12-8.56,26.09-21.33,37.1-31.12a159,159,0,0,0,26-29C693.22,377.27,676.62,415,650,440.63c-16.55,15.93-35.32,31.09-55.13,42.72-14.47,8.48-32.86,15-47.32,23.5,35.77-9.94,56.85-20.33,92.16-44.51-15,29.19-45.78,48-75,62.81-18.9,9.57-38,19-58.37,24.88s-56.78,5.36-77.33.2C412.25,546,373.14,526.85,364.05,487.56Z" transform="translate(-362.92 -226.96)"/><path class="cls-2" d="M365.67,482.48c-8.45-28.68,3.58-66.55,22.45-89.75S431.87,352.14,454,332c13.55-12.33,26.94-27.69,26.94-46,0-8.62-4.37-18.31-12.77-20.24-10.86-2.5-19.68,8.73-30.25,12.25-16.68,5.57-36.38-8.65-51.79-.18-1.46.8-3.1,1.75-4.75,1.67a2.44,2.44,0,0,1-1.81-.63c-.82-1,.13-2.4,1.08-3.23,7.78-6.86,18.89-9.75,25.16-18,10.7-14.11,22.07-30,39.77-30.65s34.92,9.67,44.42,24.62,11.62,34,7.54,51.19S483.55,335.55,471,348c-7.23,7.18-15.32,13.42-23.2,19.89-19.23,15.79-38.48,35.49-40.3,60.31-.39,5.32.43,11.42,4.75,14.56,4.73,3.44,11.39,1.78,16.66-.76a63.06,63.06,0,0,0,16.65-11.65c-11.26,20.26-23.5,39-42,50.51C392,488.06,378.62,490.26,365.67,482.48Z" transform="translate(-362.92 -226.96)"/></svg>